<?xml version="1.0" standalone="no"?>
<!DOCTYPE svg PUBLIC "-//W3C//DTD SVG 1.1//EN" "http://www.w3.org/Graphics/SVG/1.1/DTD/svg11.dtd" >
<!--
2013-9-30: Created.
-->
<svg>
<metadata>
Created by iconfont
</metadata>
<defs>

<font id="iconfont" horiz-adv-x="1024" >
  <font-face
    font-family="iconfont"
    font-weight="500"
    font-stretch="normal"
    units-per-em="1024"
    ascent="896"
    descent="-128"
  />
    <missing-glyph />
    
    <glyph glyph-name="cross" unicode="&#59164;" d="M565.31651035 388.96050659l425.77795957 425.77795956c14.70540242 14.70540242 14.70540242 38.61110791 0 53.31651034s-38.61110791 14.70540242-53.31651036 0l-425.77795956-425.77795956-425.77795956 425.77795956c-14.70540242 14.70540242-38.61110791 14.70540242-53.31651036 0s-14.70540242-38.61110791 0-53.31651034l425.77795957-425.77795956-425.77795957-425.77795958c-14.70540242-14.70540242-14.70540242-38.61110791 0-53.31651033 7.39040737-7.39040737 17.04318435-11.01019874 26.69596135-11.01019875s19.30555395 3.69520369 26.69596132 11.01019875l425.77795956 425.77795957 425.77795957-425.77795957c7.39040737-7.39040737 17.04318435-11.01019874 26.69596133-11.01019875s19.30555395 3.69520369 26.69596134 11.01019875c14.70540242 14.70540242 14.70540242 38.61110791 0 53.31651033l-425.77795957 425.77795958z"  horiz-adv-x="1024" />

    
    <glyph glyph-name="earphone" unicode="&#58885;" d="M1194.17765 259.30085999999994l0 90.95702C1194.17765 649.535817 947.713467 896 645.501433 896l-26.406877 0C316.882521 896 73.352436 649.535817 73.352436 347.32378200000005l0-88.022923C29.340974 229.95988499999999 0 156.60744999999997 0 71.51862500000004c0-111.495702 49.879656-199.518625 111.495702-199.518625 61.616046 0 111.495702 90.95702 111.495702 199.518625 0 79.22063-26.406877 146.704871-61.616046 178.979943l0 96.825215C161.375358 602.590258 366.762178 807.977077 619.094556 807.977077L645.501433 807.977077c252.332378 0 460.653295-205.386819 460.653295-460.653295l0-93.891117c-38.143266-32.275072-64.550143-99.759312-64.550143-181.91404 0-111.495702 49.879656-199.518625 111.495702-199.518625 61.616046 0 111.495702 90.95702 111.495702 199.518625C1264.595989 156.60744999999997 1235.255014 229.95988499999999 1194.17765 259.30085999999994z"  horiz-adv-x="1265" />

    
    <glyph glyph-name="playlist" unicode="&#59207;" d="M33.87953 832.015996l447.888028 0c17.659585 0 31.992002 14.332417 31.992002 31.992002s-14.332417 31.992002-31.992002 31.992002l-447.888028 0c-17.659585 0-31.992002-14.332417-31.992002-31.992002s14.332417-31.992002 31.992002-31.992002zM33.87953 640.063984l447.888028 0c17.659585 0 31.992002 14.332417 31.992002 31.992002s-14.332417 31.992002-31.992002 31.992002l-447.888028 0c-17.659585 0-31.992002-14.332417-31.992002-31.992002s14.332417-31.992002 31.992002-31.992002zM513.75956 480.103974c0 17.659585-14.332417 31.992002-31.992002 31.992002l-447.888028 0c-17.659585 0-31.992002-14.332417-31.992002-31.992002s14.332417-31.992002 31.992002-31.992002l447.888028 0c17.659585 0 31.992002 14.332417 31.992002 31.992002zM1012.738815 571.28118l-312.817796 312.817796c-9.885529 9.917521-24.633842 11.837041-36.566858 6.014496-12.540865-4.350912-21.594601-16.091977-21.594601-30.136466l0-708.206948c-33.911522 25.113722-78.412397 40.501875-127.328168 40.501875-106.021495 0-192.047988-71.75806-192.047988-160.247938s85.994501-160.311922 192.047988-160.311922c106.117471 0 192.047988 71.790052 192.047988 160.311922 0 3.999-0.383904 7.934016-0.735816 11.869033l0 743.910022 261.790552-261.790552c12.476881-12.476881 32.75981-12.476881 45.268683 0s12.476881 32.75981 0 45.268683zM641.727568 28.952762c-2.303424-44.468883-54.162459-92.776806-128.095976-92.776806-75.629093 0-128.31992 50.547363-128.31992 95.848038 0 45.332667 52.690827 95.816046 128.31992 95.816046 73.933517 0 125.792552-48.243939 128.095976-92.744814l0-6.110472z"  horiz-adv-x="1024" />

    
    <glyph glyph-name="video" unicode="&#58941;" d="M512 725.333333C388.352 725.333333 278.645333 711.445333 212 701.333333 156.917333 692.970667 112.778667 650.506667 102.666667 593.333333 94.005333 544.650667 85.333333 473.173333 85.333333 384 85.333333 294.869333 94.005333 223.349333 102.666667 174.666667 112.821333 117.493333 156.917333 74.986667 212 66.666667 278.858667 56.554667 389.034667 42.666667 512 42.666667 634.965333 42.666667 745.098667 56.554667 812 66.666667 867.125333 74.986667 911.221333 117.450667 921.333333 174.666667 929.952 223.392 938.666667 295.082667 938.666667 384 938.666667 472.96 929.994667 544.608 921.333333 593.333333 911.221333 650.506667 867.082667 692.970667 812 701.333333 745.354667 711.445333 635.605333 725.333333 512 725.333333zM512 640C624.768 640 725.696 630.592 786.666667 621.333333 812.906667 617.365333 832.597333 596.213333 837.333333 569.333333 844.928 526.666667 853.333333 463.786667 853.333333 384 853.333333 304.256 844.885333 241.333333 837.333333 198.666667 832.554667 171.744 812.949333 150.634667 786.666667 146.666667 725.44 137.408 624.085333 128 512 128 399.872 128 298.517333 137.408 237.333333 146.666667 211.093333 150.634667 190.112 171.786667 185.333333 198.666667 177.781333 241.248 170.666667 304 170.666667 384 170.666667 464.042667 177.781333 526.752 185.333333 569.333333 190.112 596.213333 211.093333 617.365333 237.333333 621.333333 298.304 630.592 399.232 640 512 640zM384 554.666667 384 213.333333 682.666667 384 384 554.666667z"  horiz-adv-x="1024" />

    
    <glyph glyph-name="music" unicode="&#59049;" d="M1001.172979 880.984117a63.871501 63.871501 0 0 1-52.255592 14.015891l-544.05975-95.99925A63.935501 63.935501 0 0 1 351.99405 735.99325v-549.435707C319.514304 210.109359 277.370633 223.99725 230.586999 223.99725c-27.199788 0-54.399575-4.511965-80.927368-13.311896-60.735526-20.255842-109.439145-60.863525-133.630956-111.487129-18.687854-39.135694-21.087835-81.695362-6.847946-119.871063C33.532538-85.888329 102.715998-128 185.435352-128c27.199788 0 54.399575 4.447965 80.895368 13.311896 60.703526 20.191842 109.407145 60.799525 133.598956 111.35913A158.814759 158.814759 0 0 1 415.385555 63.9985h0.575996V575.9945c3.679971 0 7.423942 0.319998 11.135913 0.927993l532.955836 94.047265V282.556793c-32.511746 23.551816-74.623417 37.439708-121.439051 37.439707-27.199788 0-54.431575-4.511965-80.927368-13.311896-60.735526-20.255842-109.439145-60.863525-133.566957-111.487129-18.687854-39.135694-21.119835-81.695362-6.879946-119.871063C641.623788 10.110921 710.743248-32.00075 793.494601-32.00075a254.71801 254.71801 0 0 1 80.927368 13.311896c60.671526 20.191842 109.375146 60.799525 133.566956 111.35913A158.846759 158.846759 0 0 1 1023.476804 159.99775h0.575996V831.9925c0 18.879853-8.383935 36.863712-22.879821 48.991617zM246.042878-54.016578c-76.671401-25.5678-155.934782-0.575996-176.926618 55.679565-21.055836 56.31956 24.031812 122.687042 100.671214 148.254842 76.671401 25.5678 155.934782 0.639995 176.926618-55.679565 21.087835-56.28756-23.999813-122.687042-100.671214-148.254842z m606.875259 95.99925c-76.735401-25.5678-155.998781-0.575996-176.990617 55.679565-21.055836 56.31956 24.063812 122.687042 100.671213 148.254842 76.735401 25.5678 155.998781 0.639995 176.990617-55.679565 21.087835-56.28756-23.967813-122.687042-100.671213-148.254842zM958.74131 735.99325L414.681561 639.994V735.99325L958.74131 831.9925v-95.99925z"  horiz-adv-x="1024" />

    
    <glyph glyph-name="list" unicode="&#59134;" d="M62.5 640.183c0 17.652 14.296 31.962 31.911 31.962h829.11c17.624 0 31.911-14.346 31.911-31.962 0-17.652-14.296-31.962-31.911-31.962H94.41c-17.624 0-31.912 14.345-31.912 31.962z m0-255.695c0 17.652 14.296 31.962 31.911 31.962h829.11c17.624 0 31.911-14.346 31.911-31.962 0-17.652-14.296-31.962-31.911-31.962H94.41c-17.624 0-31.912 14.346-31.912 31.962z m0-255.694c0 17.652 14.296 31.962 31.911 31.962h829.11c17.624 0 31.911-14.346 31.911-31.962 0-17.652-14.296-31.962-31.911-31.962H94.41c-17.624 0-31.912 14.345-31.912 31.962z"  horiz-adv-x="1024" />

    
    <glyph glyph-name="default-avatar" unicode="&#58888;" d="M512-128C229.229714-128 0 101.22971399999994 0 384S229.229714 896 512 896s512-229.229714 512-512-229.229714-512-512-512z m316.752457 109.714286a515.028114 515.028114 0 0 1 55.135086 50.366171c-32.4608 125.952-127.224686 226.903771-249.475657 267.995429a191.605029 191.605029 0 0 1 69.588114 147.924114C704 554.042514 618.042514 640 512 640s-192-85.957486-192-192c0-59.509029 27.077486-112.713143 69.588114-147.924114-122.250971-41.091657-217.014857-142.043429-249.475657-267.995429a515.028114 515.028114 0 0 1 55.135086-50.366171C217.424457 136.79177100000004 350.793143 256 512 256s294.575543-119.208229 316.752457-274.285714zM512 320a128 128 0 1 0 0 256 128 128 0 0 0 0-256z"  horiz-adv-x="1024" />

    
    <glyph glyph-name="radio" unicode="&#58974;" d="M925.156124 161.05244400000004a483.555556 483.555556 0 1 1-833.024 11.377778 32.256 32.256 0 0 1 55.978667 32.085334 419.100444 419.100444 0 1 0 722.033778-9.841778 32.256 32.256 0 0 1 55.011555-33.564445z m-165.262222 114.744889a290.133333 290.133333 0 1 1-499.825778 6.826667 32.256 32.256 0 0 1 55.978667 32.085333 225.678222 225.678222 0 1 0 388.835556-5.290666 32.256 32.256 0 1 1 55.011555-33.564445z m-155.591111 96.881778l-9.955555-338.090667a32.426667 32.426667 0 0 0-0.910223-6.599111c0.568889-4.437333 0.853333-8.931556 0.853334-13.482666 0-72.248889-70.257778-127.260444-153.6-127.260445-83.285333 0-153.486222 55.011556-153.486223 127.260445s70.200889 127.203556 153.543112 127.203555c33.962667 0 65.763556-9.102222 91.534222-24.860444L540.473458 395.719111a32.256 32.256 0 0 0 17.408 27.704889 32.085333 32.085333 0 0 0 12.743111 6.257778c3.413333 0.853333 28.444444 9.272889 39.025778 12.231111 13.539556 3.697778 27.932444 6.769778 44.487111 9.216a32.256 32.256 0 1 0 9.386666-63.772445c-13.880889-2.048-25.713778-4.551111-36.750222-7.623111-4.209778-1.137778-13.596444-4.209778-22.471111-7.054222z"  horiz-adv-x="1024" />

    
    <glyph glyph-name="netease" unicode="&#58968;" d="M681.557145 895.917014c10.348315-1.684609 20.804511-2.879603 31.036645-5.128515 35.949398-7.916834 68.139544-23.833488 96.545543-47.160763 18.638584-15.30256 26.248371-35.252318 20.854301-58.894939-4.846364-21.252633-18.439419-35.567663-39.4099-41.683708-19.825279-5.784102-37.758485-1.394159-54.040276 11.659488-20.630241 16.539046-43.534289 27.982772-70.985953 25.534695-23.260887-2.074642-45.509348-26.54712-43.509393-48.39725 0.896245-9.775713 4.389943-19.327365 6.871214-28.937107 4.389943-16.987169 8.904364-33.932845 13.368994-50.895119 0.771767-2.929395 1.485444-5.261292 5.576638-5.485354 62.529712-3.41901 118.860393-23.750502 169.06673-61.475793 49.359884-37.0946 89.773911-81.599821 116.860438-137.532171 19.875071-41.044718 31.020048-84.38814 33.966039-129.88919 3.916924-60.455069-3.18665-119.607264-26.721389-175.464927-54.695863-129.77301-150.92606-213.472369-286.201021-251.961128a474.785984 474.785984 0 0 0-157.631303-17.335709c-110.985051 6.31521-207.132263 48.247876-288.134588 124.063595C129.154652 71.71981600000004 79.330049 163.667952 61.99434 271.615727 38.409809 418.433996 74.583268 550.082482 170.249162 664.245885c52.554833 62.71228 118.130119 107.906283 194.601425 137.084049 26.356253 10.057865 55.202076 0.69708 69.66648-22.323149 14.771451-23.501545 11.310948-53.741528-9.161619-72.463097-5.784102-5.286188-13.086842-9.460368-20.389582-12.439554-116.586585-47.600587-193.613895-131.424425-224.202418-253.670634-29.67568-118.619734-3.435607-227.181604 72.338619-322.839199 47.501004-59.965454 108.860618-100.238406 183.132804-120.013894 48.007217-12.779795 96.50405-13.61795 145.407512-6.057955 50.446996 7.800654 97.557968 24.389492 139.814278 53.318301 58.148068 39.808232 99.566222 92.902471 120.279447 160.419623 17.891713 58.314039 18.505807 117.175783-3.601578 175.041699-17.79213 46.571565-49.227107 82.404782-88.661903 111.955984-21.070065 15.783877-43.691962 28.123848-69.483912 34.165205-1.170098 0.273853-2.365092 0.40663-4.497824 0.75517 3.518593-13.50177 6.796527-26.31476 10.182344-39.094555 8.17409-30.83748 16.539046-61.633466 24.580359-92.512438 17.468486-67.110521 0.572601-125.905877-45.642126-176.012632-42.745925-46.339205-97.167935-66.496427-159.598064-60.45507-69.500509 6.730139-119.10935 44.447131-151.482064 105.516295-16.953975 31.982682-24.265013 66.446636-25.61768 102.512213-2.149329 57.426092 11.252859 110.445644 44.148383 157.830469 35.327005 50.903417 84.27196 83.558283 142.088085 103.856582 4.547615 1.593325 9.153321 3.053873 14.4893 4.821468-3.103665 11.808863-6.356703 23.335574-9.153321 34.978465-3.850536 16.007938-8.804781 31.924592-10.738347 48.189785-5.734311 48.081904 9.028842 89.914987 42.248011 124.926646C578.198477 870.407216 611.201883 888.589379 650.727964 894.024941 655.084712 894.622438 659.424863 895.286323 663.765014 895.917014h17.792131zM558.124241 522.6059230000001c-34.239892-10.879423-63.807691-27.484858-85.964868-55.135687-29.667381-37.019913-35.584261-79.541776-26.115594-124.744078 4.912752-23.460052 16.389672-43.550886 36.530297-57.567168 25.186155-17.526576 59.484137-16.771406 85.823792 1.460548 26.920555 18.638584 38.903688 48.704297 31.036646 79.541777-8.613914 33.775173-17.775533 67.417568-26.688196 101.126352l-14.622077 55.318256z"  horiz-adv-x="1024" />

    
    <glyph glyph-name="paihang" unicode="&#58899;" d="M731.456-79.168H292.544V800.512C292.544 854.08 335.424 896 390.08 896h243.84c54.656 0 97.472-41.92 97.472-95.488v-879.68z m-390.144 48.704h341.312V800.512c0 26.24-21.44 46.72-48.704 46.72h-243.84c-27.328 0-48.768-20.544-48.768-46.72v-830.976zM341.312-79.168H97.536c-53.76 0-97.536 43.712-97.536 97.472v512c0 53.76 43.776 97.536 97.536 97.536h243.776v-707.008zM97.536 579.072a48.832 48.832 0 0 1-48.768-48.768v-512c0-26.88 21.888-48.768 48.768-48.768h195.008V579.072H97.536zM926.528-79.168h-243.904V481.536h243.904C980.16 481.536 1024 437.76 1024 384v-365.696c0-53.76-43.84-97.472-97.472-97.472z m-195.072 48.704h195.072c26.88 0 48.704 21.888 48.704 48.768V384a48.768 48.768 0 0 1-48.704 48.768h-195.072v-463.232z"  horiz-adv-x="1024" />

    
    <glyph glyph-name="recent-play" unicode="&#59369;" d="M440.822815 552.951648q-19.423285 11.965062-34.000719 3.250508t-14.577435-31.42823v-281.677513q0-22.773502 14.577435-31.428231t34.000719 3.250509l253.659325 141.965466q20.520082 10.828382 20.520082 27.100867t-20.520082 27.100866z m0 0M511.975053-128c282.754368 0 511.965082 229.230655 511.965082 511.965082a511.167411 511.167411 0 0 1-203.406062 408.606884 38.268258 38.268258 0 0 1-46.185141-61.021819 434.730604 434.730604 0 0 0 173.09457-347.565123c0-240.497756-194.950751-435.448507-435.448507-435.448508a38.268258 38.268258 0 0 1 0-76.536516z m0 0M511.975053 895.950106C229.220685 895.950106 0.009971 666.71945 0.009971 383.98502399999995a511.147469 511.147469 0 0 1 203.406063-408.606884A38.268258 38.268258 0 0 1 249.621117 36.45978400000001a434.730604 434.730604 0 0 0-173.094571 347.565123c0 240.497756 194.950751 435.448507 435.448507 435.448508a38.268258 38.268258 0 1 1 0 76.516574z m0 0"  horiz-adv-x="1024" />

    
    <glyph glyph-name="right" unicode="&#58958;" d="M792.412504 384.172939l-48.762587 48.793286-0.208754-0.206708L280.350083 895.88846l-48.762587-48.762587 463.096197-463.125873L231.587496-79.12996599999997l48.762587-48.75747 463.09108 463.124849 0.208754-0.206708 48.762587 48.798403-0.172939 0.171915L792.412504 384.172939zM792.412504 384.172939"  horiz-adv-x="1024" />

    
    <glyph glyph-name="setting" unicode="&#58902;" d="M512 543.06133333c-87.49511111 0-158.37866667-70.88355555-158.37866667-158.37866666 0-87.49511111 70.88355555-158.37866667 158.37866667-158.37866667 87.49511111 0 158.37866667 70.88355555 158.37866667 158.37866667 0 87.49511111-70.88355555 158.37866667-158.37866667 158.37866666z m0-253.26933333c-52.45155555 0-95.00444445 42.55288889-95.00444445 95.00444445s42.55288889 95.00444445 95.00444445 95.00444444 95.00444445-42.55288889 95.00444445-95.00444444c0-52.56533333-42.55288889-95.00444445-95.00444445-95.00444445zM916.59377778 525.08444445l-7.39555556 2.38933333c-4.55111111 12.74311111-9.67111111 25.14488889-15.36 37.31911111l3.52711111 6.82666666c16.83911111 20.13866667 25.94133333 45.28355555 25.94133334 71.90755556 0 30.15111111-11.71911111 58.368-32.99555556 79.64444444l-39.82222222 39.82222223c-21.27644445 21.27644445-49.60711111 32.99555555-79.64444444 32.99555555-26.624 0-51.76888889-9.10222222-71.90755556-25.94133333l-6.82666667-3.52711111c-12.17422222 5.68888889-24.576 10.80888889-37.31911111 15.36l-2.50311111 7.50933333c-5.23377778 57.23022222-53.58933333 102.05866667-112.07111111 102.05866667h-56.32c-58.59555555 0-106.83733333-44.94222222-112.07111111-102.17244444l-2.38933333-7.39555556c-12.74311111-4.55111111-25.14488889-9.67111111-37.20533334-15.36l-7.168 3.52711111C304.92444445 786.77333333 279.89333333 795.87555555 253.38311111 795.87555555c-30.03733333 0-58.368-11.71911111-79.53066666-32.99555555l-39.82222223-39.82222222c-21.27644445-21.27644445-32.99555555-49.49333333-32.99555555-79.64444445 0-26.51022222 9.10222222-51.65511111 25.82755555-71.79377778l3.52711111-7.168c-5.68888889-12.06044445-10.69511111-24.34844445-15.24622222-36.97777777l-7.73688889-2.61688889c-57.11644445-5.46133333-101.94488889-53.58933333-101.94488889-112.07111111v-56.32c0-58.48177778 44.82844445-106.72355555 101.94488889-112.07111111l7.73688889-2.61688889c4.55111111-12.62933333 9.67111111-25.03111111 15.24622222-36.97777778l-3.52711111-7.168c-16.72533333-20.13866667-25.82755555-45.16977778-25.82755555-71.68 0-30.03733333 11.71911111-58.368 32.99555555-79.64444445l39.82222223-39.82222222c21.27644445-21.27644445 49.49333333-32.99555555 79.64444444-32.99555555 26.51022222 0 51.54133333 9.10222222 71.68 25.82755555l7.168 3.52711112c12.06044445-5.68888889 24.46222222-10.69511111 36.97777778-15.24622223l2.61688888-7.73688889c5.46133333-57.00266667 53.58933333-101.83111111 112.07111112-101.83111111h56.32c58.48177778 0 106.72355555 44.82844445 112.07111111 101.83111111l2.61688889 7.73688889c12.62933333 4.55111111 25.03111111 9.67111111 37.09155555 15.36l6.94044445-3.52711111c20.13866667-16.72533333 45.28355555-25.94133333 71.90755555-25.94133333 30.03733333 0 58.368 11.71911111 79.64444445 32.99555555l39.82222222 39.82222222c21.27644445 21.27644445 32.99555555 49.49333333 32.99555556 79.64444445 0 26.624-9.10222222 51.76888889-25.94133334 71.90755555l-3.52711111 6.82666667c5.68888889 12.17422222 10.80888889 24.576 15.36 37.31911111l7.50933333 2.50311112c57.23022222 5.23377778 102.17244445 53.58933333 102.17244445 112.0711111v56.32c-0.22755555 58.59555555-45.16977778 106.83733333-102.4 112.1848889z m38.912-168.04977778c0-30.60622222-24.80355555-55.40977778-55.40977778-55.40977778l-41.18755555-13.53955556c-7.96444445-28.33066667-19.00088889-55.296-33.22311112-80.32711111l19.56977778-38.57066667c21.61777778-21.61777778 21.61777778-56.77511111 0-78.39288888l-39.25333333-39.25333334c-10.80888889-10.80888889-25.03111111-16.27022222-39.13955556-16.27022222-14.22222222 0-28.33066667 5.46133333-39.25333333 16.27022222l-38.68444444 19.56977778c-24.91733333-14.10844445-51.76888889-25.25866667-79.98577778-33.10933333L595.05777778-3.4133333300000004c0-30.60622222-24.80355555-55.40977778-55.40977778-55.40977778h-55.40977778c-30.60622222 0-55.40977778 24.80355555-55.40977777 55.40977778l-13.8808889 41.41511111c-28.10311111 7.85066667-54.84088889 18.88711111-79.64444444 32.88177777l-38.912-19.34222222c-10.80888889-10.80888889-25.03111111-16.27022222-39.25333333-16.27022222s-28.33066667 5.46133333-39.13955556 16.27022222l-39.13955555 39.25333334c-21.61777778 21.61777778-21.61777778 56.77511111 0 78.39288888l19.34222222 38.912c-13.99466667 24.80355555-25.03111111 51.54133333-32.88177778 79.64444445L124.01777778 301.62488888999997c-30.60622222 0-55.40977778 24.80355555-55.40977778 55.40977778V412.44444445c0 30.60622222 24.80355555 55.40977778 55.40977778 55.40977777l41.30133333 13.88088889c7.85066667 28.10311111 18.88711111 54.84088889 32.88177778 79.64444444l-19.34222222 38.912c-21.61777778 21.61777778-21.61777778 56.77511111 0 78.3928889l39.13955555 39.25333333c10.80888889 10.80888889 25.03111111 16.27022222 39.13955556 16.27022222 14.22222222 0 24.80355555 0 35.84-11.03644445l39.48088889-19.68355555c25.37244445 14.336 52.67911111 25.6 81.35111111 33.56444445l14.90488889 35.84c0 30.60622222 24.80355555 55.40977778 55.40977778 55.40977777h55.40977777c30.60622222 0 55.40977778-24.80355555 55.40977778-55.40977777l13.53955555-41.18755556c28.33066667-7.85066667 55.296-19.00088889 80.32711112-33.22311111l38.57066666 19.56977777c10.80888889 10.80888889 28.78577778 21.73155555 43.12177778 21.73155556 14.44977778 0 24.34844445-10.92266667 35.15733334-21.73155556l39.25333333-39.25333333c21.61777778-21.61777778 21.61777778-56.77511111 0-78.39288889l-19.56977778-38.57066666c14.22222222-25.03111111 25.25866667-51.99644445 33.22311111-80.32711112l41.18755556-13.42577777c30.60622222 0 55.40977778-24.80355555 55.40977778-55.40977778v-55.63733333z"  horiz-adv-x="1024" />

    
    <glyph glyph-name="sati" unicode="&#59108;" d="M496.810667 445.913458a358.684444 358.684444 0 0 1 179.370666 317.013333c-0.995556 60.643556 67.128889 97.564444 117.048889 63.00444499a488.846222 488.846222 0 0 0 145.265778-157.83822299c138.894222-240.583111 52.138667-548.465778-192.739556-681.016889C516.32355601-137.1692089999999 220.387556-55.533653009999966 86.926222 168.75079100000005A488.846222 488.846222 0 0 0 19.569778 378.52856899999995c-5.12 60.785778 61.127111 101.603556 113.379555 70.314667a358.684444 358.684444 0 0 1 363.861334-2.929778z m28.444444-49.265778a415.573333 415.573333 0 0 0-421.489778 3.384889c-12.65777799 7.566222-28.728889-2.332444-27.534222-16.725333 5.48977801-65.137778 25.486222-128.199111 59.562667-185.457778C253.724444-0.2092089999999871 516.096-72.60032000000001 718.677333 37.081458c216.689778 117.304889 293.432889 389.688889 170.552889 602.56711101a431.957333 431.957333 0 0 1-128.398222 139.51999999c-11.662222 8.07822201-28.017778-0.768-27.76177801-15.303111a415.573333 415.573333 0 0 0-207.81511099-367.217778z"  horiz-adv-x="1024" />

    
    <glyph glyph-name="lock" unicode="&#59158;" d="M853.23508736 491.71242781h-78.93804032V657.52783645c-2.10970283 82.0187648-60.03803819 237.14710869-264.4172288 237.14710982-204.38035342 0-262.288896-160.51553735-264.39859883-246.17156038v-156.79212203h-76.96805319c-18.35976818 0-33.23247389-14.88551253-33.23247388-33.23247389v-420.2278491c0-1.10375139 0.05355747-2.20633885 0.16183751-3.28680448 12.82936718-127.73830315 94.68745955-159.41062087 134.28047644-157.14024562 10.06067371-0.08615822 164.55913358-1.51591253 300.92835726-1.51591253 77.94256782 0 149.98798109 0.47619641 185.63287382 1.90478677 102.97607623 4.1542053 130.18215879 98.72174194 130.18215879 148.16003755v432.10482347c0.00116395 18.34929038-14.86339072 33.23480178-33.2313088 33.23480178M509.87981824 828.21116245c186.66909696 0 197.37944747-154.86870642 197.95344498-171.52743992v-164.97129472H311.94616718V647.68255773c0.18395819 7.37697337 6.63066055 180.52860473 197.93365106 180.52860472m310.12279523-801.83603086c0-8.09301447-1.86054315-79.14295637-66.40091136-81.74049849-96.35356558-3.87244487-479.41013049-0.36791751-484.14881222-0.34579569-5.91811129 0.02212181-57.79909973 3.00621027-67.70724978 95.67361706V425.24748117h618.25697336v-398.87234958zM477.97696967 170.66272427v-39.57322411c0-18.34696135 14.86339072-33.23247389 33.23247388-33.23247389 18.36791922 0 33.23247389 14.88551253 33.23247389 33.23247389v39.78745515c20.36002702 11.61850083 34.29314674 33.31863097 34.29314674 58.39521792 0 37.23299157-30.27865714 67.52329159-67.52562063 67.52329159-37.22484167 0-67.50349881-30.29030002-67.5034988-67.52329159-0.00116395-24.55498297 13.26364899-46.77671822 34.27102492-58.60944896"  horiz-adv-x="1024" />

    
    <glyph glyph-name="back" unicode="&#58880;" d="M11.24281966 359.30358799L488.38482966-117.89791600000001a34.506529 34.506529 0 0 1 48.78509299 48.785093l-418.74268299 418.706987L1032.16013766 349.594164a34.506529 34.506529 0 0 1 2e-8 68.953565l-912.94757702 1e-8L537.16992266 836.505091a34.506529 34.506529 0 1 1-48.785093 48.78509401l-477.14201-477.14201a34.506529 34.506529 0 0 1 1e-8-48.78509301z"  horiz-adv-x="1066" />

    
    <glyph glyph-name="search" unicode="&#58881;" d="M1014.023788-72.836633L786.143731 155.044448c68.109214 78.54796 109.326964 181.045379 109.326964 293.171086 0 247.27171-200.453405 447.724091-447.724091 447.724091S0.021489 695.48622 0.021489 448.215534s200.453405-447.724091 447.724091-447.724091c112.125707 0 214.623126 41.21775 293.171086 109.326964l227.881081-227.881081c5.786797-5.78782 13.782911-9.367345 22.61302-9.367345 17.662265 0 31.980365 14.3181 31.980365 31.980365C1023.391133-86.61852099999999 1019.811608-78.62342899999999 1014.023788-72.836633zM447.74558 64.45114999999998c-211.94718 0-383.76336 171.817204-383.76336 383.76336S235.798401 831.978894 447.74558 831.978894s383.76336-171.817204 383.76336-383.76336S659.69276 64.45114999999998 447.74558 64.45114999999998z"  horiz-adv-x="1024" />

    
    <glyph glyph-name="FM" unicode="&#58886;" d="M865.73511111 408.40533333H606.66311111c-12.51555555 0-22.75555555 10.24-22.75555556 22.98311111 0 12.51555555 10.24 22.98311111 22.75555556 22.98311111h259.29955556c12.51555555 0 22.75555555-10.46755555 22.75555555-22.98311111-0.11377778-12.74311111-10.35377778-22.98311111-22.98311111-22.98311111zM804.63644445 277.56088888h-197.97333334c-12.51555555 0-22.75555555 10.24-22.75555556 22.98311112 0 12.51555555 10.24 23.09688889 22.75555556 23.09688888h197.85955556c12.51555555 0 22.75555555-10.46755555 22.75555555-23.09688888-0.11377778-12.74311111-10.12622222-22.98311111-22.64177777-22.98311112zM853.44711111 146.71644444000003H606.66311111c-12.51555555 0-22.75555555 10.24-22.75555556 22.98311111 0 12.51555555 10.24 23.09688889 22.75555556 23.09688889h246.784c12.51555555 0 22.75555555-10.46755555 22.75555556-23.09688889 0.11377778-12.74311111-10.12622222-22.98311111-22.75555556-22.98311111zM139.03644445 354.13333333zM472.86044445 359.70844444c-3.86844445 53.248-48.92444445 95.00444445-102.17244445 95.00444444-23.77955555 0-46.53511111-8.192-64.73955555-22.9831111-18.20444445 14.79111111-40.96 22.98311111-64.73955556 22.9831111-53.02044445 0-96.71111111-39.70844445-101.83111111-91.136-0.56888889-3.64088889-0.56888889-9.216-0.56888889-9.216 0-1.024 0.56888889-15.13244445 1.82044444-21.9591111 17.18044445-104.448 144.384-166.34311111 165.31911112-166.34311112 20.70755555 0 147.68355555 61.89511111 164.864 164.864 1.59288889 7.168 2.27555555 14.336 2.27555555 21.504 0.22755555 0.68266667 0.22755555 5.23377778-0.22755555 7.28177778z m-31.51644445-16.83911111c-13.76711111-81.69244445-112.41244445-133.57511111-135.39555555-143.13244445-22.98311111 9.216-121.856 61.66755555-135.62311112 144.61155556-0.56888889 2.61688889-1.024 11.71911111-1.25155555 15.13244444 0 0.22755555 0 1.82044445 0.22755555 4.096 3.29955555 32.768 30.49244445 57.57155555 63.488 57.57155556 18.20444445 0 35.61244445-7.96444445 47.55911112-21.504 6.37155555-7.168 15.58755555-11.264 25.37244444-11.264 9.67111111 0 18.88711111 4.096 25.37244444 11.264 12.06044445 13.53955555 29.46844445 21.504 47.55911112 21.504 33.22311111 0 61.21244445-25.82755555 63.71555555-60.416 0.22755555-1.25155555 0-3.072 0-3.29955556 0.79644445-4.32355555 0.22755555-8.98844445-1.024-14.56355555zM950.272 715.264H185.79911111L386.84444445 832c9.216 5.34755555 12.288 17.18044445 6.94044444 26.16888888-5.34755555 9.216-17.18044445 12.288-26.05511111 6.94044445L108.99911111 715.264H73.95555555c-40.73244445 0-73.95555555-33.22311111-73.95555555-74.18311112v-623.84355555c0-10.24 2.048-19.91111111 5.91644445-28.89955555 11.264-26.624 37.66044445-45.28355555 68.0391111-45.28355556h876.0888889c35.84 0 65.536 25.6 72.47644444 59.392 1.024 4.89244445 1.47911111 9.67111111 1.47911111 14.79111111V641.08088888c0.22755555 40.96-32.99555555 74.18311111-73.728 74.18311112z m27.87555555-219.36355556v-478.66311111c0-2.048-0.22755555-3.86844445-0.56888888-5.68888889-2.61688889-12.85688889-14.10844445-22.528-27.42044445-22.528H74.18311111c-13.53955555 0-24.80355555 9.67111111-27.42044444 22.528-0.22755555 1.82044445-0.56888889 3.86844445-0.56888889 5.68888889V641.08088888c0 15.58755555 12.51555555 28.44444445 28.10311111 28.44444445h875.97511111c15.36 0 28.10311111-12.85688889 28.10311111-28.44444445v-145.18044444h-0.22755556zM232.90311111 420.92088888c-32.99555555 0-60.416-24.80355555-63.488-57.57155555-0.22755555-2.27555555-0.22755555-3.86844445-0.22755556-4.096 0-3.29955555 0.79644445-12.51555555 1.25155556-15.13244445 13.76711111-82.944 112.64-135.39555555 135.62311111-144.61155555 22.98311111 9.216 121.62844445 61.44 135.39555556 143.13244445 1.25155555 5.68888889 1.59288889 10.01244445 1.59288889 14.56355555v3.29955555c-2.61688889 34.58844445-30.49244445 60.416-63.71555556 60.416-18.20444445 0-35.61244445-7.96444445-47.55911111-21.504-6.37155555-7.168-15.58755555-11.264-25.37244445-11.264-9.67111111 0-18.88711111 4.096-25.37244444 11.264-12.51555555 13.53955555-29.92355555 21.504-48.128 21.504z"  horiz-adv-x="1024" />

    
    <glyph glyph-name="rili" unicode="&#58887;" d="M68.609584 555.298131h886.488262v7.753115 158.426863c0 24.429627-13.677665 38.180435-38.03415 38.253578-21.650208 0-43.373559-0.219428-65.09691 0.073142a33.718737 33.718737 0 0 0-33.279881 31.305031 33.865022 33.865022 0 0 0 36.425012 36.717583h64.365485c59.099218-0.365713 103.716201-44.982696 103.716201-104.008771v-746.932189c0-59.245503-45.055839-104.081914-104.447627-104.081914H104.595741c-59.976929 0-104.593912 44.616984-104.593912 104.593912V502.196606 723.526102c0 53.906093 35.913015 95.816801 89.233967 103.350488 12.507384 1.828565 25.380481 0.804569 38.107292 0.950853 14.189664 0.073143 28.306185 0.146285 42.422706 0 19.748501-0.219428 34.37702-14.628519 34.523305-33.645594a33.645594 33.645594 0 0 0-34.450163-34.37702c-22.162207-0.219428-44.324413 0-66.486619-0.146285-20.406784-0.073143-35.108446-14.262806-35.181589-34.450163C68.024443 670.278292 68.170728 615.348202 68.170728 560.418113c0-1.609137 0.29257-3.218274 0.438856-5.119982z m886.488262-68.973468H68.170728v-506.731904c0-25.307338 13.53138-38.692433 38.985004-38.692434h809.103396c25.161053 0 38.838718 13.677665 38.838718 38.911861V478.425263v7.8994zM511.414859 827.827443h66.559763c20.772497-0.073143 36.205585-14.92109 35.986157-34.37702-0.219428-19.309645-15.579373-33.645594-36.132443-33.718736-45.055839-0.073143-90.038536-0.146285-135.094374 0.073142a34.011307 34.011307 0 1 0 3.657129 68.022614h65.096911z m238.883719-34.450162v-65.755194c-0.073143-21.13821-14.409091-36.0593-34.377021-35.986157-19.529073 0.073143-33.645594 14.994232-33.645594 35.839872-0.073143 44.251271-0.146285 88.502541 0 132.900097 0 20.772497 14.189664 35.547302 33.865022 35.620444 19.602216 0.073143 34.011307-14.847947 34.157593-35.474159v-67.144903z m-409.159682 0.365713c0-22.381634 0.146285-44.763269 0-67.218046a33.133596 33.133596 0 0 0-19.16336-31.451316 32.475313 32.475313 0 0 0-34.815876 2.779419 31.817029 31.817029 0 0 0-14.262806 27.06276c-0.073143 46.006693-0.29257 91.940243 0.146285 137.873793A33.060453 33.060453 0 0 0 307.200731 895.996343c18.87079-0.146285 33.645594-14.774804 33.865022-34.37702 0.29257-22.674205 0-45.275267 0-67.876329z"  horiz-adv-x="1024" />

    
    <glyph glyph-name="cellphone" unicode="&#58924;" d="M430.30755555 44.94222221999996c0 13.76711111 11.15022222 24.91733333 24.91733334 24.91733333h115.82577778c13.76711111 0 24.91733333-11.15022222 24.91733333-24.91733333 0-13.76711111-11.15022222-24.91733333-24.91733333-24.91733333H455.22488889c-13.76711111 0-24.91733333 11.15022222-24.91733334 24.91733333zM775.73688889-124.70044444999996H250.53866667c-49.60711111 0-89.99822222 40.39111111-89.99822222 89.99822223V803.95377778c0 49.60711111 40.39111111 89.99822222 89.99822222 89.99822222h525.312c49.60711111 0 89.99822222-40.39111111 89.99822222-89.99822222V-34.70222221999995c-0.11377778-49.60711111-40.50488889-89.99822222-90.112-89.99822223zM250.53866667 841.04533333c-20.48 0-37.09155555-16.61155555-37.09155556-37.09155555V-34.70222221999995c0-20.48 16.61155555-37.09155555 37.09155556-37.09155556h525.312c20.48 0 37.09155555 16.61155555 37.09155555 37.09155556V803.95377778c0 20.48-16.61155555 37.09155555-37.09155555 37.09155555H250.53866667zM186.93688889 222.89066666999997h652.40177778v-52.90666667H186.93688889z"  horiz-adv-x="1024" />

    
    <glyph glyph-name="download" unicode="&#58882;" d="M976.21333333 283.59111111000004c-20.48 0-34.13333333-13.65333333-34.13333333-34.13333333v-116.05333333c0-54.61333333-27.30666667-102.4-102.4-102.4H184.32c-81.92-6.82666667-102.4 47.78666667-102.4 102.4V249.45777778000001c0 20.48-13.65333333 34.13333333-34.13333333 34.13333333s-27.30666667-13.65333333-27.30666667-34.13333333V92.44444444999999c0-75.09333333 61.44-136.53333333 136.53333333-136.53333334h716.8c75.09333333 0 136.53333333 61.44 136.53333334 136.53333334V249.45777778000001c-6.82666667 20.48-20.48 34.13333333-34.13333334 34.13333333zM518.82666667 147.05777778000004M546.13333333 217.88444444000004l184.32 177.49333333c13.65333333 13.65333333 13.65333333 34.13333333 0 47.78666667s-34.13333333 13.65333333-47.78666666 0L552.96 327.1111111v477.86666667c0 20.48-13.65333333 34.13333333-34.13333333 34.13333333s-34.13333333-13.65333333-34.13333334-34.13333333v-477.86666667L354.98666667 443.16444444c-13.65333333 13.65333333-40.96 13.65333333-47.78666667 0-13.65333333-13.65333333-13.65333333-34.13333333 0-47.78666667l184.32-177.49333333s27.30666667-27.30666667 54.61333333 0z"  horiz-adv-x="1024" />

    
    <glyph glyph-name="collection" unicode="&#58889;" d="M403.2512 801.9712c-130.56 0-236.7488-106.24-236.7488-236.8256 0-45.0048 12.7232-88.832 36.8128-126.72a238.1568 238.1568 0 0 1 82.688-78.976 353.024 353.024 0 0 1-131.6864-83.2512A349.8752 349.8752 0 0 1 51.2 27.18719999999996c0-14.0032 11.3664-25.3696 25.344-25.3696 14.0032 0 25.3696 11.3664 25.3696 25.3696 0 80.512 31.36 156.2112 88.2688 213.1456a299.776 299.776 0 0 0 204.2368 88.1664c3.2256-0.128 6.144-0.1792 8.832-0.1792 130.56 0 236.7488 106.24 236.7488 236.8 0 130.6112-106.1888 236.8512-236.7488 236.8512z m3.5328-422.8864a24.576 24.576 0 0 1-3.584 0.2816c-2.8672 0-5.7856-0.0256-8.6784-0.1024a185.7024 185.7024 0 0 0-177.3056 185.856c0 102.656 83.456 186.112 186.0352 186.112 102.5792 0 186.0352-83.456 186.0352-186.112 0-100.7872-81.8176-184.1408-182.5024-186.0352zM546.9184-59.62239999999997a22.2464 22.2464 0 0 0-22.016 24.9344l20.7104 168.448-114.0736 123.8528a22.272 22.272 0 0 0 12.032 36.864l163.6608 31.9488 80.4096 148.2752a22.144 22.144 0 0 0 19.2256 11.8016h0.4096a22.1952 22.1952 0 0 0 19.1488-11.0336c3.456-5.7856 69.376-116.6592 84.9152-145.28a22.272 22.272 0 0 0-25.8048-31.8976 22.1952 22.1952 0 0 0-13.184 10.7008c-9.9328 18.2784-42.1376 73.0112-64.256 110.336l-66.8416-123.2896a22.1184 22.1184 0 0 0-15.2576-11.2128l-134.912-26.368 94.1312-102.144a22.1952 22.1952 0 0 0 5.7088-17.7664l-17.0496-138.496 123.8272 59.0592a22.528 22.528 0 0 0 19.0976 0l123.8016-59.0336-17.024 138.4704a22.1952 22.1952 0 0 0 5.7088 17.7664l94.1312 102.144-26.9824 5.2736a22.0416 22.0416 0 0 0-14.1568 9.3952 22.2208 22.2208 0 0 0 22.656 34.2272l65.9712-12.8768a22.2208 22.2208 0 0 0 12.0576-36.864l-114.0736-123.8528 20.736-168.448a22.2208 22.2208 0 0 0-31.5904-22.784l-150.784 71.936-150.784-71.936a22.2976 22.2976 0 0 0-9.5488-2.1504z"  horiz-adv-x="1024" />

    
    <glyph glyph-name="local-music" unicode="&#58921;" d="M179.585829-128C81.625367-128 0-48.70463900000004 0 51.58582899999999s79.295361 179.573302 179.585829 179.573302c39.647681 0 76.965355-13.992562 109.623018-37.305148l9.320024-7.002544V762.9266c0 34.987669 27.997651 62.922685 60.642787 62.922686L958.571932 895.862204h4.660012C995.889607 898.204737 1026.204737 870.207086 1026.204737 835.231944v-674.035624c0-48.980231-18.665101-93.287923-53.640243-125.945586-32.657663-32.645136-79.295361-51.360344-125.945586-51.360344-97.947935 0-179.585829 79.295361-179.585829 179.585828 0 97.960462 79.295361 179.585829 179.585829 179.585829a182.817773 182.817773 0 0 0 109.610491-37.317674l9.332551-6.990018V611.325895l-606.390292-65.302799v-494.437267c-2.330006-100.290468-81.637894-179.585829-179.585829-179.585829z m0 296.198865c-65.302799 0-118.943042-53.65277-118.943042-119.005677s53.640243-118.943042 119.005676-118.943041 119.005676 53.640243 119.005677 118.943041c-2.330006 67.645332-53.640243 119.005676-118.943042 119.005677z m667.033079 111.940497c-65.302799 0-119.005676-53.640243-119.005676-119.005676s53.640243-118.943042 119.005676-118.943042 118.943042 53.640243 118.943042 118.943042-53.640243 119.005676-118.943042 119.005676zM356.841652 606.628303l606.390292 65.302799V837.56195l-599.387747-69.975338h-7.002545z m0 0"  horiz-adv-x="1026" />

    


  </font>
</defs>
</svg>
